<svg fill="none" height="72" viewBox="0 0 72 72" width="72" xmlns="http://www.w3.org/2000/svg"><path d="m29.6899.506964c1.3166-.148055 2.6212.365494 3.4836 1.371366l8.1609 9.51847c9.372 2.316 14.8021 9.373 17.8054 18.1828 3.0947 9.0779 3.8602 20.6024 3.8602 32.4204 0 2.2091-1.7909 4-4 4h-37.2951c-2.1235 0-3.877-1.6594-3.9939-3.7798-.1044-1.8921.331-5.1753 1.6576-8.5288l.0244-.0614c-3.7673 2.0222-7.9482 1.5378-11.05187-.672-3.77186-2.6855-5.86911-7.9426-3.47297-13.1342 1.72788-3.7438 3.59016-5.7262 4.99896-7.2256 1.31598-1.4005 1.86438-2.0165 2.25228-3.5683 2.3523-9.409 7.1915-14.8292 12.3885-17.3028-.0752-1.0719-.0141-2.10462.1174-3.04221.3273-2.33381 1.142-4.49051 1.9725-6.06714.6175-1.17229 1.7754-1.962732 3.0921-2.110786z" fill="#34364c"/><path clip-rule="evenodd" d="m39.1707 15.0185-9.0339-10.53663c-1.3077 2.4826-2.5754 6.86423-.7527 10.02723-.8847.0788-1.7302.2284-2.3841.4909-4.1721 1.6743-8.75 6-11 15-.6515 2.606-1.8241 3.854-3.2178 5.3372-1.3146 1.3992-2.82598 3.0076-4.2822 6.1628-3 6.5 5.0963 13 11 7.0963 3.3191-3.3191 6.2204-4.6894 8.6562-5.8397 3.5058-1.6558 6.0475-2.8562 7.4831-8.7566.6831 2.7523.4099 9.2477-6.1475 13.211s-7.9235 12.3119-7.7869 14.7889h37.2951c0-23.5167-3.1135-43.8351-19.8293-46.9814z" fill="#f4f7fa" fill-rule="evenodd"/><circle cx="28" cy="27" fill="#34364c" r="3"/></svg>