<svg fill="none" height="72" viewBox="0 0 72 72" width="72" xmlns="http://www.w3.org/2000/svg"><path d="m18 10c0 .9873.1588 1.9373.4523 2.8258l-1.9744.9262c-1.6369-1.6967-3.9341-2.752-6.4779-2.752-4.97056 0-9 4.0294-9 9 0 4.4308 3.2018 8.1138 7.41791 8.8614l4.74209 16.2586c.099.3394.2425.6642.4269.9658l2.7331 4.4724-.0168.003c-1.9107.338-3.3032 1.9985-3.3032 3.9388v7.5c0 2.2091 1.7909 4 4 4h38.0769c1.0609 0 2.0783-.4214 2.8284-1.1716.7502-.7501 1.1716-1.7675 1.1716-2.8284v-7.5c0-1.9426-1.3956-3.6043-3.309-3.9399l-.0804-.0141 2.7256-4.4602c.1844-.3016.3279-.6264.4269-.9658l4.7421-16.2586c4.2161-.7476 7.4179-4.4306 7.4179-8.8614 0-4.9706-4.0294-9-9-9-2.547 0-4.8468 1.058-6.4841 2.7584l-1.9709-.9245c.2952-.8908.455-1.8436.455-2.8339 0-4.97056-4.0294-9-9-9s-9 4.02944-9 9c0-4.97056-4.0294-9-9-9s-9 4.02944-9 9z" fill="#34364c"/><path d="m28.7948 14.6682c1.8748-.7212 3.2052-2.5394 3.2052-4.6682 0-2.76142-2.2386-5-5-5s-5 2.23858-5 5c0 2.5519 1.9117 4.6572 4.3811 4.9621l-2.2298 18.0379-10.7491-9.3359c.9829-.9131 1.5978-2.2168 1.5978-3.6641 0-2.7614-2.2386-5-5-5-2.76142 0-5 2.2386-5 5s2.23858 5 5 5c.4861 0 .956-.0694 1.4004-.1987l5.5996 19.1987 5.7906 9.4756-5.7906 1.0244v7.5h38.0769v-7.5l-5.865-1.0286 5.7881-9.4714 5.5996-19.1987c.4444.1293.9143.1987 1.4004.1987 2.7614 0 5-2.2386 5-5s-2.2386-5-5-5-5 2.2386-5 5c0 1.4473.6149 2.751 1.5978 3.6641l-10.7491 9.3359-2.2298-18.0379c2.4694-.3049 4.3811-2.4102 4.3811-4.9621 0-2.76142-2.2386-5-5-5s-5 2.23858-5 5c0 2.1288 1.3304 3.947 3.2052 4.6682l-7.2052 16.3318z" fill="#f4f7fa"/></svg>