<svg fill="none" height="72" viewBox="0 0 72 72" width="72" xmlns="http://www.w3.org/2000/svg"><path d="m26 5c.7286 0 1.4117.19479 2 .53513.5883-.34034 1.2714-.53513 2-.53513h11c.7286 0 1.4117.19479 2 .53513.5884-.34034 1.2714-.53513 2-.53513h10c2.2091 0 4 1.79086 4 4v9c0 1.259-.5928 2.4446-1.6 3.2l-6.1721 4.6291 1.7476 15.7292c.4627 4.1643 2.401 6.277 5.2245 10.0417.5193.6924.8 1.5345.8 2.4v8c0 2.2091-1.7909 4-4 4h-39c-2.2091 0-4-1.7909-4-4v-8c0-.8655.2807-1.7076.8-2.4 2.8235-3.7647 4.7618-5.8774 5.2245-10.0417l1.7477-15.7292-6.1722-4.6291c-1.0072-.7554-1.6-1.941-1.6-3.2v-9c0-2.20914 1.7909-4 4-4z" fill="#34364c"/><g fill="#f4f7fa"><path d="m16 9h10v6h4v-6h11v6h4v-6h10v9l-8 6 2 18h-27l2-18-8-6z"/><path d="m22 46h27l6 8v8h-39v-8z"/></g></svg>