<svg fill="none" height="72" viewBox="0 0 72 72" width="72" xmlns="http://www.w3.org/2000/svg"><path d="m26.314 16.8839c-.4019-1.1042-.6217-2.2961-.6217-3.5377 0-5.71408 4.6321-10.3462 10.3462-10.3462 5.714 0 10.3461 4.63212 10.3461 10.3462 0 1.6737-.4 3.2603-1.1091 4.6633 1.0204.0706 2.0119.5303 2.7348 1.3565 3.9276 4.4887 7.3647 10.8888 7.3647 18.3071 0 5.3035-1.8259 9.2335-4.2931 12.0652l4.686.8218c1.9134.3356 3.309 1.9973 3.309 3.9399v7.5c0 1.0609-.4214 2.0783-1.1716 2.8284-.7501.7502-1.7675 1.1716-2.8284 1.1716h-38.0769c-2.2091 0-4-1.7909-4-4v-7.5c0-1.9403 1.3925-3.6008 3.3032-3.9388l4.2271-.7478c-2.5009-2.837-4.3572-6.789-4.3572-12.1403 0-5.7878 2.2429-10.8282 4.8735-14.691 1.6535-2.428 3.5255-4.4894 5.2674-6.0982z" fill="#f4f7fa"/><path d="m38 37.1442h-4c0-7.3448 2.2277-14.6773 7.1561-20.0445.7723-1.0512 1.2285-2.3491 1.2285-3.7535 0-3.50494-2.8412-6.3462-6.3461-6.3462s-6.3462 2.84126-6.3462 6.3462c0 1.7292.6917 3.2969 1.8133 4.4415-3.9642 2.8261-11.3325 10.4012-11.3325 19.8854 0 9.5712 7.5041 13.4461 11.4408 14.2416l-14.6139 2.5853v7.5h38.0769v-7.5l-14.9604-2.6238c3.9812-.8763 11.2585-4.7777 11.2585-14.2031 0-6.1716-2.875-11.6731-6.375-15.6731-3.8439 3-7 10-7 15.1442z" fill="#34364c"/></svg>