<svg fill="none" height="72" viewBox="0 0 72 72" width="72" xmlns="http://www.w3.org/2000/svg"><g clip-rule="evenodd" fill-rule="evenodd"><path d="m30.0019 3.87506c.0675-2.15944 1.8376-3.87506 3.9981-3.87506h6c2.1605 0 3.9306 1.71562 3.998 3.87506l.0352 1.12494h1.9668c2.2091 0 4 1.79086 4 4v2.4261c4.3602-.9867 9.0663-.3277 13.0607 3.001 8.2982 6.9152 7.5347 21.411-2.3135 29.3398-2.3766 1.9134-4.2437 3.4996-5.5294 5.1341-.2933.3729-.5446.7337-.7561 1.0868l4.0539.5483c1.9839.2683 3.4639 1.962 3.4639 3.9639v7.5c0 2.2091-1.7909 4-4 4h-41.959c-2.2091 0-4-1.7909-4-4v-7.5c0-2.0019 1.48-3.6956 3.4639-3.9639l4.0539-.5483c-.2115-.3531-.4628-.7139-.7561-1.0868-1.2857-1.6345-3.1528-3.2207-5.5294-5.1341-9.84818-7.9288-10.61171-22.4246-2.3135-29.3398 3.9944-3.3287 8.7005-3.9877 13.0607-3.001v-2.4261c0-2.20914 1.7909-4 4-4h1.9668z" fill="#f4f7fa"/><path d="m34 4h6l.1562 5h5.8438v6h-5.6563l.2748 6.793c.1097-.1292.2226-.2558.3389-.3795 5.4632-5.8064 13.5633-8.8963 19.5426-3.9135 6 5 6 16.5-2.2613 23.1512-4.6797 3.7676-8.8714 7.3997-8.6648 12.712l8.4056 1.1368v7.5h-41.959v-7.5l8.4056-1.1368c.2066-5.3123-3.9851-8.9444-8.6648-12.712-8.2613-6.6512-8.2613-18.1512-2.2613-23.1512 5.9793-4.9828 14.0794-1.8929 19.5426 3.9135.1163.1237.2292.2503.3389.3795l.2747-6.793h-5.6562v-6h5.8437zm-5.652 22.9731c3.6667 6.006 4.152 13.0269 4.152 16.0801-1.8379.0033-8.7662-3.0447-12.4344-8.0486-2.6408-3.6024-3.3294-8.9471-1.0656-11.0221s7.0563-.7631 9.348 2.9906zm17.304 0c-3.6667 6.006-4.152 13.0269-4.152 16.0801 1.8379.0033 8.7662-3.0447 12.4344-8.0486 2.6408-3.6024 3.3294-8.9471 1.0656-11.0221s-7.0564-.7631-9.348 2.9906z" fill="#34364c"/></g></svg>