<svg fill="none" height="72" viewBox="0 0 72 72" width="72" xmlns="http://www.w3.org/2000/svg"><path d="m23.1075 41.127c-.4772.6515-1.0467 1.3299-1.7104 2.0278-2.3426 2.463-5.2155 4.4895-7.0697 5.549l-.312.1783c-1.2463.7121-2.0154 2.0375-2.0154 3.4729v9.645c0 2.2091 1.7909 4 4 4h39c2.2091 0 4-1.7909 4-4v-9.645c0-1.4354-.7691-2.7607-2.0154-3.4729l-.3119-.1783c-1.8542-1.0595-4.7272-3.086-7.0698-5.549-.6637-.6979-1.2332-1.3763-1.7104-2.0278 1.7555-.4229 3.0599-2.0036 3.0599-3.8889v-6.5112c0-1.2997-.6315-2.5184-1.6933-3.2679l-1.6989-1.1992c.9803-1.9047 1.535-4.066 1.535-6.355 0-7.6794-6.2253-13.9048-13.9047-13.9048s-13.9048 6.2254-13.9048 13.9048c0 2.4177.6187 4.6924 1.7038 6.6728l-1.2486.8814c-1.0618.7495-1.6933 1.9682-1.6933 3.2679v6.5112c0 1.8853 1.3044 3.466 3.0599 3.8889z" fill="#f4f7fa"/><path d="m45.0952 19.9048c0 2.8726-1.2229 5.4597-3.1765 7.2688l5.0337 3.5533v6.5112h-4.9278c.2376 3.0181 2.1741 6.0387 4.6799 8.6734 2.6593 2.796 5.8588 5.0511 7.9836 6.2653l.3119.1782v9.645h-39v-9.645l.3119-.1782c2.1248-1.2142 5.3243-3.4693 7.9836-6.2653 2.5058-2.6347 4.4423-5.6553 4.6799-8.6734h-4.9278v-6.5112l4.6881-3.3093c-2.1123-1.8164-3.45-4.5084-3.45-7.5128 0-5.4703 4.4345-9.9048 9.9048-9.9048 5.4702 0 9.9047 4.4345 9.9047 9.9048z" fill="#34364c"/></svg>