<svg width="576" height="576" viewBox="0 0 576 576" fill="none" xmlns="http://www.w3.org/2000/svg">
<rect width="576" height="576" fill="#F4F7FA"/>
<rect width="72" height="72" fill="#E8EDF9"/>
<rect width="72" height="72" transform="translate(0 144)" fill="#E8EDF9"/>
<rect width="72" height="72" transform="translate(0 288)" fill="#E8EDF9"/>
<rect width="72" height="72" transform="translate(0 432)" fill="#E8EDF9"/>
<rect width="72" height="72" transform="translate(0 72)" fill="#B7C0D8"/>
<rect width="72" height="72" transform="translate(0 216)" fill="#B7C0D8"/>
<rect width="72" height="72" transform="translate(0 360)" fill="#B7C0D8"/>
<rect width="72" height="72" transform="translate(0 504)" fill="#B7C0D8"/>
<rect width="72" height="72" transform="translate(144 72)" fill="#B7C0D8"/>
<rect width="72" height="72" transform="translate(144 216)" fill="#B7C0D8"/>
<rect width="72" height="72" transform="translate(144 360)" fill="#B7C0D8"/>
<rect width="72" height="72" transform="translate(144 504)" fill="#B7C0D8"/>
<rect width="72" height="72" transform="translate(288 72)" fill="#B7C0D8"/>
<rect width="72" height="72" transform="translate(288 216)" fill="#B7C0D8"/>
<rect width="72" height="72" transform="translate(288 360)" fill="#B7C0D8"/>
<rect width="72" height="72" transform="translate(288 504)" fill="#B7C0D8"/>
<rect width="72" height="72" transform="translate(432 72)" fill="#B7C0D8"/>
<rect width="72" height="72" transform="translate(432 216)" fill="#B7C0D8"/>
<rect width="72" height="72" transform="translate(432 360)" fill="#B7C0D8"/>
<rect width="72" height="72" transform="translate(432 504)" fill="#B7C0D8"/>
<rect width="72" height="72" transform="translate(288)" fill="#E8EDF9"/>
<rect width="72" height="72" transform="translate(288 144)" fill="#E8EDF9"/>
<rect width="72" height="72" transform="translate(288 288)" fill="#E8EDF9"/>
<rect width="72" height="72" transform="translate(288 432)" fill="#E8EDF9"/>
<rect width="72" height="72" transform="translate(144)" fill="#E8EDF9"/>
<rect width="72" height="72" transform="translate(144 144)" fill="#E8EDF9"/>
<rect width="72" height="72" transform="translate(144 288)" fill="#E8EDF9"/>
<rect width="72" height="72" transform="translate(144 432)" fill="#E8EDF9"/>
<rect width="72" height="72" transform="translate(432)" fill="#E8EDF9"/>
<rect width="72" height="72" transform="translate(432 144)" fill="#E8EDF9"/>
<rect width="72" height="72" transform="translate(432 288)" fill="#E8EDF9"/>
<rect width="72" height="72" transform="translate(432 432)" fill="#E8EDF9"/>
<rect width="72" height="72" transform="translate(72)" fill="#B7C0D8"/>
<rect width="72" height="72" transform="translate(72 144)" fill="#B7C0D8"/>
<rect width="72" height="72" transform="translate(72 288)" fill="#B7C0D8"/>
<rect width="72" height="72" transform="translate(72 432)" fill="#B7C0D8"/>
<rect width="72" height="72" transform="translate(72 72)" fill="#E8EDF9"/>
<rect width="72" height="72" transform="translate(72 216)" fill="#E8EDF9"/>
<rect width="72" height="72" transform="translate(72 360)" fill="#E8EDF9"/>
<rect width="72" height="72" transform="translate(72 504)" fill="#E8EDF9"/>
<rect width="72" height="72" transform="translate(216 72)" fill="#E8EDF9"/>
<rect width="72" height="72" transform="translate(216 216)" fill="#E8EDF9"/>
<rect width="72" height="72" transform="translate(216 360)" fill="#E8EDF9"/>
<rect width="72" height="72" transform="translate(216 504)" fill="#E8EDF9"/>
<rect width="72" height="72" transform="translate(360 72)" fill="#E8EDF9"/>
<rect width="72" height="72" transform="translate(360 216)" fill="#E8EDF9"/>
<rect width="72" height="72" transform="translate(360 360)" fill="#E8EDF9"/>
<rect width="72" height="72" transform="translate(360 504)" fill="#E8EDF9"/>
<rect width="72" height="72" transform="translate(504 72)" fill="#E8EDF9"/>
<rect width="72" height="72" transform="translate(504 216)" fill="#E8EDF9"/>
<rect width="72" height="72" transform="translate(504 360)" fill="#E8EDF9"/>
<rect width="72" height="72" transform="translate(504 504)" fill="#E8EDF9"/>
<rect width="72" height="72" transform="translate(360)" fill="#B7C0D8"/>
<rect width="72" height="72" transform="translate(360 144)" fill="#B7C0D8"/>
<rect width="72" height="72" transform="translate(360 288)" fill="#B7C0D8"/>
<rect width="72" height="72" transform="translate(360 432)" fill="#B7C0D8"/>
<rect width="72" height="72" transform="translate(216)" fill="#B7C0D8"/>
<rect width="72" height="72" transform="translate(216 144)" fill="#B7C0D8"/>
<rect width="72" height="72" transform="translate(216 288)" fill="#B7C0D8"/>
<rect width="72" height="72" transform="translate(216 432)" fill="#B7C0D8"/>
<rect width="72" height="72" transform="translate(504)" fill="#B7C0D8"/>
<rect width="72" height="72" transform="translate(504 144)" fill="#B7C0D8"/>
<rect width="72" height="72" transform="translate(504 288)" fill="#B7C0D8"/>
<rect width="72" height="72" transform="translate(504 432)" fill="#B7C0D8"/>
</svg>
